<svg width="512" height="512" viewBox="0 0 512 512" fill="none" xmlns="http://www.w3.org/2000/svg">
<path d="M336 512H176C158.4 512 144 497.6 144 480C144 462.4 158.4 448 176 448H336C353.6 448 368 462.4 368 480C368 497.6 353.6 512 336 512Z" fill="#1597E5"/>
<path d="M256 0C123.2 0 45.6 151.2 124 258.4L230.4 404C243.2 421.6 268.8 421.6 281.6 404L388 258.4C466.4 151.2 388.8 0 256 0ZM256 224C229.6 224 208 202.4 208 176C208 149.6 229.6 128 256 128C282.4 128 304 149.6 304 176C304 202.4 282.4 224 256 224Z" fill="#04009A"/>
</svg>
