<svg xmlns="http://www.w3.org/2000/svg" viewBox="0 0 291.05 34.06">
  <defs>
    <style>
      .fc1db441-7778-4948-917e-9b4f9131ed6b {
        fill: #00c08b;
      }
    </style>
  </defs>
  <g id="a0f796f1-ac13-4026-b7d8-dce8640a497b" data-name="Capa 2">
    <g id="e3a78571-540f-4bc0-ae8d-bcdb050c2a93" data-name="Textos">
      <g>
        <path class="fc1db441-7778-4948-917e-9b4f9131ed6b" d="M68.36,9.54,65,11.79a8.31,8.31,0,0,0-7-3.61c-5.11,0-8.87,3.7-8.87,9.1s3.76,9.1,8.87,9.1a8.22,8.22,0,0,0,7-3.59l3.29,2.41A12.16,12.16,0,0,1,58,30.26c-7.68,0-13.1-5.5-13.1-13s5.42-13,13.1-13C62.44,4.3,66.39,6.29,68.36,9.54Z"/>
        <path class="fc1db441-7778-4948-917e-9b4f9131ed6b" d="M87.5,21.23a9.22,9.22,0,0,1-18.43,0,9.22,9.22,0,0,1,18.43,0Zm-14.58,0a5.37,5.37,0,1,0,10.74,0,5.37,5.37,0,1,0-10.74,0Z"/>
        <path class="fc1db441-7778-4948-917e-9b4f9131ed6b" d="M117.73,19.45V30.21H114V20.68c0-2.88-1.49-4.49-4-4.49a4.25,4.25,0,0,0-4.43,4.53v9.49h-3.75V20.68c0-2.88-1.49-4.49-4-4.49a4.24,4.24,0,0,0-4.43,4.53v9.49H89.63V13.08h3.72v2.09a6.06,6.06,0,0,1,5.26-2.53,6.74,6.74,0,0,1,5.91,3,7,7,0,0,1,6.26-3A6.6,6.6,0,0,1,117.73,19.45Z"/>
        <path class="fc1db441-7778-4948-917e-9b4f9131ed6b" d="M136.61,22.54c0,5.45-3.93,7.7-7.94,7.7s-7.94-2.25-7.94-7.7V12.67h3.76V22.2c0,3.31,1.84,4.52,4.18,4.52s4.18-1.21,4.18-4.52V12.67h3.76Z"/>
        <path class="fc1db441-7778-4948-917e-9b4f9131ed6b" d="M155.72,19.47V30.23H152V20.7c0-2.87-1.48-4.48-4-4.48a4.24,4.24,0,0,0-4.44,4.52v9.49h-3.75V13.11h3.72V15.2a6.06,6.06,0,0,1,5.25-2.54A6.6,6.6,0,0,1,155.72,19.47Z"/>
        <path class="fc1db441-7778-4948-917e-9b4f9131ed6b" d="M163.4,7.21a2.63,2.63,0,0,1-5.26,0,2.63,2.63,0,1,1,5.26,0Zm-.75,23H158.9V13.13h3.75Z"/>
        <path class="fc1db441-7778-4948-917e-9b4f9131ed6b" d="M178.72,15V4.31h3.74v26.2h-3.74V28a6.49,6.49,0,0,1-5.38,2.5c-4.79,0-8.56-3.77-8.56-9s3.77-9,8.56-9A6.53,6.53,0,0,1,178.72,15Zm-10.1,6.49c0,3,1.95,5.49,5.17,5.49S179,24.62,179,21.49,176.88,16,173.79,16,168.62,18.49,168.62,21.49Z"/>
        <path class="fc1db441-7778-4948-917e-9b4f9131ed6b" d="M202.26,30.23h-3.73V27.74a6.49,6.49,0,0,1-5.38,2.5c-4.79,0-8.57-3.77-8.57-9s3.78-9,8.57-9a6.51,6.51,0,0,1,5.38,2.52V12.67h3.73Zm-13.83-9c0,3,1.94,5.49,5.16,5.49s5.17-2.36,5.17-5.49-2.07-5.49-5.17-5.49S188.43,18.23,188.43,21.23Z"/>
        <path class="fc1db441-7778-4948-917e-9b4f9131ed6b" d="M218.33,15V4.31h3.74V30.45h-3.74V28A6.5,6.5,0,0,1,213,30.51c-4.79,0-8.56-3.78-8.56-9s3.77-9,8.56-9A6.5,6.5,0,0,1,218.33,15Zm-10.1,6.49c0,3,2,5.49,5.17,5.49s5.16-2.36,5.16-5.49S216.49,16,213.4,16,208.23,18.49,208.23,21.49Z"/>
        <polygon class="fc1db441-7778-4948-917e-9b4f9131ed6b" points="243.07 18.91 229.84 18.91 229.84 30.23 225.73 30.23 225.73 4.32 243.91 4.32 243.91 8.21 229.84 8.21 229.84 15.02 243.07 15.02 243.07 18.91"/>
        <path class="fc1db441-7778-4948-917e-9b4f9131ed6b" d="M261.07,21.22c0,.48,0,1-.07,1.39H248.34a4.84,4.84,0,0,0,5.1,4.36,8.22,8.22,0,0,0,4.95-1.8l1.86,2.66a10.3,10.3,0,0,1-7.05,2.41c-5.13,0-8.76-3.57-8.76-9s3.49-9,8.53-9C257.77,12.22,261.05,15.87,261.07,21.22Zm-12.71-1.45h8.89c-.41-2.67-2-4.22-4.35-4.22C250.24,15.55,248.76,17.26,248.36,19.77Z"/>
        <rect class="fc1db441-7778-4948-917e-9b4f9131ed6b" x="263.2" y="4.35" width="3.75" height="25.84"/>
        <path class="fc1db441-7778-4948-917e-9b4f9131ed6b" d="M274.82,6.79a2.61,2.61,0,0,1-2.65,2.66,2.59,2.59,0,0,1-2.61-2.66,2.61,2.61,0,0,1,2.61-2.68A2.64,2.64,0,0,1,274.82,6.79Zm-.75,23.42h-3.76V12.81h3.76Z"/>
        <polygon class="fc1db441-7778-4948-917e-9b4f9131ed6b" points="290.87 15.8 281.52 26.81 291.05 26.81 291.05 30.21 276.55 30.21 276.55 27.49 286.06 16.48 276.83 16.48 276.83 13.08 290.87 13.08 290.87 15.8"/>
        <g>
          <path class="fc1db441-7778-4948-917e-9b4f9131ed6b" d="M7.21,23.23l.52-3.72L17,14.78l5.49,2.71.35,4.05a13.25,13.25,0,0,1,2.35,1.91,8.33,8.33,0,0,1,1.51-.22,8.1,8.1,0,0,1,7.36,4.88V1.72A1.73,1.73,0,0,0,33.56.5,1.71,1.71,0,0,0,32.35,0H1.72A1.76,1.76,0,0,0,.84.24,1.73,1.73,0,0,0,0,1.72V28.11A8.12,8.12,0,0,1,7.21,23.23Zm19.18-4.35L17,14V9.22L25.83,15ZM8.91,11.15,17,4.59l8.25,6.5.5,3.39L17,8.61,8.43,14.54Zm-.55,3.9,3.69-2.49-.36,4.32L7.82,18.93Z"/>
          <path class="fc1db441-7778-4948-917e-9b4f9131ed6b" d="M27.18,24.73a9.31,9.31,0,0,0-1.59.14A12.25,12.25,0,0,0,17,21.42a12.11,12.11,0,0,0-8.53,3.45,9.1,9.1,0,0,0-1.58-.14A8.57,8.57,0,0,0,0,28.11v4.24A1.63,1.63,0,0,0,.14,33a1.71,1.71,0,0,0,1.58,1.05H32.35a1.71,1.71,0,0,0,1.71-1.71V28.11A8.55,8.55,0,0,0,27.18,24.73Z"/>
        </g>
      </g>
    </g>
  </g>
</svg>
