<svg width="1666" height="430" viewBox="0 0 1666 430" fill="none" xmlns="http://www.w3.org/2000/svg">
<path d="M556.744 85.1875H478.814V60.5781H661.773V85.1875H583.844V268H556.744V85.1875ZM772.369 60.5781H787.75L877.545 268H847.955L828.326 222.59H724.469L703.229 268H675.396L772.369 60.5781ZM817.779 197.98L799.029 154.475C796.686 149.006 794.391 143.342 792.145 137.482L786.285 120.93C782.574 110.188 780.377 102.863 779.693 98.957H777.936C777.154 102.863 775.396 108.43 772.662 115.656C772.662 115.656 770.172 122.004 765.191 134.699C762.945 140.168 760.504 145.734 757.867 151.398L736.041 197.98H817.779ZM908.16 60.5781H935.26V243.391H1048.35V268H908.16V60.5781ZM1158.79 60.5781H1174.18L1263.97 268H1234.38L1214.75 222.59H1110.89L1089.65 268H1061.82L1158.79 60.5781ZM1204.21 197.98L1185.46 154.475C1183.11 149.006 1180.82 143.342 1178.57 137.482L1172.71 120.93C1169 110.188 1166.8 102.863 1166.12 98.957H1164.36C1163.58 102.863 1161.82 108.43 1159.09 115.656C1159.09 115.656 1156.6 122.004 1151.62 134.699C1149.37 140.168 1146.93 145.734 1144.29 151.398L1122.47 197.98H1204.21ZM1309.67 60.7246H1317.73L1409.28 161.066L1500.69 60.7246H1509.33L1526.91 268H1500.4L1487.07 111.994L1409.58 197.834H1406.65L1331.5 113.312L1319.78 268H1293.56L1309.67 60.7246ZM1579.94 60.5781H1607.04V268H1579.94V60.5781Z" fill="white"/>
<path d="M626.707 327.516H632.127V364.078H654.744V369H626.707V327.516ZM661.189 327.516H666.609V348.99C666.609 356.529 669.119 361.402 674.139 363.609C675.857 364.352 677.889 364.723 680.232 364.723C682.576 364.723 684.568 364.381 686.209 363.697C687.869 363.014 689.236 362.027 690.311 360.738C692.4 358.258 693.445 354.635 693.445 349.869V327.516H698.865V348.99C698.865 358.932 695.281 365.328 688.113 368.18C685.73 369.117 682.977 369.586 679.852 369.586C676.727 369.586 674.002 369.137 671.678 368.238C669.373 367.32 667.449 366.012 665.906 364.312C662.762 360.875 661.189 356.061 661.189 349.869V327.516ZM710.262 359.596C709.344 358.033 708.631 356.344 708.123 354.527C707.615 352.691 707.361 350.729 707.361 348.639C707.361 346.549 707.625 344.557 708.152 342.662C708.699 340.748 709.471 338.99 710.467 337.389C711.463 335.768 712.654 334.312 714.041 333.023C715.428 331.734 716.971 330.641 718.67 329.742C722.225 327.867 726.102 326.93 730.301 326.93C736.473 326.93 741.58 328.648 745.623 332.086L742.576 336.246C739.158 333.277 734.891 331.793 729.773 331.793C725.145 331.793 721.219 333.316 717.996 336.363C714.734 339.43 713.104 343.248 713.104 347.818C713.104 352.799 714.715 356.861 717.938 360.006C721.141 363.15 725.232 364.723 730.213 364.723C733.982 364.723 737.352 363.619 740.32 361.412C741.16 360.787 741.873 360.133 742.459 359.449V354.967H728.074V350.045H747.879V369H742.459V364.986C740.232 366.998 737.254 368.395 733.523 369.176C732.156 369.449 730.564 369.586 728.748 369.586C726.932 369.586 725.086 369.361 723.211 368.912C721.336 368.443 719.598 367.779 717.996 366.92C716.395 366.041 714.93 364.986 713.602 363.756C712.293 362.525 711.18 361.139 710.262 359.596ZM773.396 327.516H776.473L794.432 369H788.514L784.588 359.918H763.816L759.568 369H754.002L773.396 327.516ZM782.479 354.996L778.729 346.295C778.26 345.201 777.801 344.068 777.352 342.896L776.18 339.586C775.438 337.438 774.998 335.973 774.861 335.191H774.51C774.354 335.973 774.002 337.086 773.455 338.531C773.455 338.531 772.957 339.801 771.961 342.34C771.512 343.434 771.023 344.547 770.496 345.68L766.131 354.996H782.479ZM836.854 340.289C836.854 346.441 834.021 350.689 828.357 353.033L836.238 369H829.939L822.82 354.557C820.887 354.85 818.865 354.996 816.756 354.996H805.975V369H800.555V327.516H817.576C823.709 327.516 828.289 328.355 831.316 330.035C835.008 332.066 836.854 335.484 836.854 340.289ZM817.488 350.074C821.863 350.074 825.105 349.469 827.215 348.258C829.812 346.754 831.111 344.215 831.111 340.641C831.111 335.992 828.104 333.355 822.088 332.73C820.35 332.535 818.562 332.438 816.727 332.438H805.975V350.074H817.488ZM863.074 327.516H880.096C886.443 327.516 891.551 329.293 895.418 332.848C899.422 336.52 901.424 341.432 901.424 347.584C901.424 354.088 899.373 359.293 895.271 363.199C891.229 367.066 885.896 369 879.275 369H863.074V327.516ZM880.008 364.078C884.871 364.078 888.709 362.613 891.521 359.684C894.295 356.793 895.682 352.877 895.682 347.936C895.682 343.17 894.148 339.381 891.082 336.568C888.094 333.814 884.148 332.438 879.246 332.438H868.494V364.078H880.008ZM909.949 327.516H940.916V332.438H915.369V343.629H938.133V348.551H915.369V364.078H941.502V369H909.949V327.516ZM968.719 359.596C967.801 358.033 967.088 356.344 966.58 354.527C966.072 352.691 965.818 350.729 965.818 348.639C965.818 346.549 966.082 344.557 966.609 342.662C967.156 340.748 967.928 338.99 968.924 337.389C969.92 335.768 971.111 334.312 972.498 333.023C973.885 331.734 975.428 330.641 977.127 329.742C980.682 327.867 984.559 326.93 988.758 326.93C994.93 326.93 1000.04 328.648 1004.08 332.086L1001.03 336.246C997.615 333.277 993.348 331.793 988.23 331.793C983.602 331.793 979.676 333.316 976.453 336.363C973.191 339.43 971.561 343.248 971.561 347.818C971.561 352.799 973.172 356.861 976.395 360.006C979.598 363.15 983.689 364.723 988.67 364.723C992.439 364.723 995.809 363.619 998.777 361.412C999.617 360.787 1000.33 360.133 1000.92 359.449V354.967H986.531V350.045H1006.34V369H1000.92V364.986C998.689 366.998 995.711 368.395 991.98 369.176C990.613 369.449 989.021 369.586 987.205 369.586C985.389 369.586 983.543 369.361 981.668 368.912C979.793 368.443 978.055 367.779 976.453 366.92C974.852 366.041 973.387 364.986 972.059 363.756C970.75 362.525 969.637 361.139 968.719 359.596ZM1017.12 327.516H1048.08V332.438H1022.54V343.629H1045.3V348.551H1022.54V364.078H1048.67V369H1017.12V327.516ZM1057.25 327.516H1062L1088.72 360.27V327.516H1093.55V369H1089.01L1062.09 336.012V369H1057.25V327.516ZM1116.52 332.438H1100.94V327.516H1137.53V332.438H1121.94V369H1116.52V332.438ZM1144.91 327.516H1175.88V332.438H1150.33V343.629H1173.09V348.551H1150.33V364.078H1176.46V369H1144.91V327.516ZM1216.89 327.516H1219.97L1237.93 369H1232.01L1228.08 359.918H1207.31L1203.06 369H1197.5L1216.89 327.516ZM1225.97 354.996L1222.22 346.295C1221.76 345.201 1221.3 344.068 1220.85 342.896L1219.68 339.586C1218.93 337.438 1218.49 335.973 1218.36 335.191H1218.01C1217.85 335.973 1217.5 337.086 1216.95 338.531C1216.95 338.531 1216.45 339.801 1215.46 342.34C1215.01 343.434 1214.52 344.547 1213.99 345.68L1209.63 354.996H1225.97ZM1247.07 327.545H1248.68L1266.99 347.613L1285.27 327.545H1287L1290.52 369H1285.21L1282.55 337.799L1267.05 354.967H1266.46L1251.43 338.062L1249.09 369H1243.85L1247.07 327.545ZM1315.86 327.516H1318.93L1336.89 369H1330.97L1327.05 359.918H1306.28L1302.03 369H1296.46L1315.86 327.516ZM1324.94 354.996L1321.19 346.295C1320.72 345.201 1320.26 344.068 1319.81 342.896L1318.64 339.586C1317.9 337.438 1317.46 335.973 1317.32 335.191H1316.97C1316.81 335.973 1316.46 337.086 1315.92 338.531C1315.92 338.531 1315.42 339.801 1314.42 342.34C1313.97 343.434 1313.48 344.547 1312.96 345.68L1308.59 354.996H1324.94ZM1343.02 327.516H1358.28C1363.22 327.516 1367 328.121 1369.62 329.332C1372.96 330.914 1374.63 333.639 1374.63 337.506C1374.63 339.186 1374.03 340.816 1372.84 342.398C1371.77 343.844 1370.54 344.781 1369.15 345.211C1371.94 345.738 1374.18 346.959 1375.86 348.873C1377.58 350.846 1378.44 353.248 1378.44 356.08C1378.44 362.096 1375.16 366.031 1368.62 367.887C1365.95 368.629 1362.81 369 1359.22 369H1343.02V327.516ZM1358.81 343.629C1363.22 343.629 1366.27 342.633 1367.95 340.641C1368.57 339.898 1368.88 338.932 1368.88 337.74C1368.88 336.549 1368.51 335.602 1367.77 334.898C1367.05 334.176 1366.12 333.629 1364.99 333.258C1363.27 332.711 1360.75 332.438 1357.43 332.438H1348.44V343.629H1358.81ZM1372.69 356.432C1372.69 351.178 1368.39 348.551 1359.77 348.551H1348.44V364.078H1359.95C1365.87 364.078 1369.75 362.818 1371.61 360.299C1372.33 359.303 1372.69 358.014 1372.69 356.432ZM1387.55 327.516H1392.97V364.078H1415.58V369H1387.55V327.516ZM1422.94 327.516H1453.9V332.438H1428.36V343.629H1451.12V348.551H1428.36V364.078H1454.49V369H1422.94V327.516Z" fill="white"/>
<path d="M418.093 193.213V265.2C392.098 282.4 369.461 294.558 349.465 302.955C300.755 323.432 268.12 321.19 242.125 313.192C194.696 298.558 161.261 257.924 106.15 265.2C80.9548 268.481 77.7562 280.401 66.1567 289.196V217.209C77.7562 208.414 80.9548 196.494 106.15 193.213C161.261 185.937 194.696 226.571 242.125 241.205C268.12 249.203 300.755 251.445 349.465 230.968C369.461 222.571 392.098 210.413 418.093 193.213Z" fill="white" fill-opacity="0.3"/>
<path d="M417.933 111.869L418.015 193.213C392.02 210.413 369.383 222.571 349.387 230.968C300.677 251.445 268.042 249.203 242.047 241.205C194.614 226.571 161.179 185.937 106.071 193.213C80.8767 196.494 77.6742 208.414 66.0786 217.209L65.9966 135.864C77.596 127.065 80.7947 115.149 105.989 111.869C161.1 104.593 194.454 145.222 241.965 159.86C267.96 167.859 300.595 170.1 349.305 149.624C369.301 141.223 391.938 129.065 417.933 111.869Z" fill="white" fill-opacity="0.3"/>
<path d="M409.185 179.872C385.458 195.557 363.263 207.789 343.181 216.217C295.244 236.366 266.464 231.984 246.757 225.922C231.318 221.154 217.282 213.202 202.421 204.789C173.954 188.656 144.463 172.01 103.997 177.345C80.1307 180.458 70.1169 190.847 62.7979 198.431C60.5444 200.782 58.5838 202.813 56.4006 204.469C49.3589 209.804 47.9842 219.841 53.327 226.879C58.6541 233.921 68.6914 235.303 75.7409 229.953C79.9003 226.801 83.052 223.528 85.8328 220.642C91.7848 214.475 95.3779 210.741 108.157 209.078C138.015 205.164 160.604 217.873 186.647 232.632C202.339 241.509 218.563 250.707 237.333 256.491C251.213 260.764 265.25 262.916 279.751 262.916C303.356 262.916 328.199 257.217 355.569 245.716C377.468 236.526 401.448 223.345 426.83 206.555C434.196 201.684 436.219 191.76 431.341 184.391C426.478 177.033 416.558 174.994 409.185 179.872Z" fill="white"/>
<path d="M75.6667 148.608C79.8261 145.449 82.9779 142.176 85.7703 139.29C91.7146 133.123 95.3038 129.393 108.087 127.729C137.976 123.788 160.46 136.513 186.486 151.244C202.198 160.149 218.449 169.354 237.27 175.146C251.147 179.419 265.187 181.567 279.688 181.567C303.29 181.567 328.133 175.873 355.507 164.371C377.405 155.181 401.385 142 426.763 125.21C434.129 120.34 436.156 110.412 431.274 103.046C426.404 95.688 416.488 93.6571 409.11 98.5352C385.388 114.22 363.193 126.452 343.107 134.88C295.154 155.037 266.394 150.647 246.679 144.585C231.185 139.809 217.137 131.849 202.245 123.421C173.825 107.319 144.478 90.6811 103.927 96.0161C80.0526 99.121 70.0388 109.518 62.7276 117.102C60.4624 119.453 58.5096 121.484 56.3264 123.14C49.2886 128.475 47.9139 138.512 53.2567 145.55C58.5838 152.564 68.6211 153.951 75.6667 148.608V148.608Z" fill="white"/>
<path d="M409.185 251.859C385.458 267.544 363.263 279.776 343.181 288.204C295.244 308.36 266.464 303.978 246.757 297.909C231.318 293.141 217.282 285.189 202.421 276.776C173.954 260.643 144.463 243.997 103.997 249.332C80.1307 252.445 70.1169 262.834 62.7979 270.418C60.5444 272.769 58.5838 274.8 56.4006 276.456C49.3589 281.791 47.9842 291.828 53.327 298.866C58.6541 305.908 68.6914 307.29 75.7409 301.94C79.9003 298.788 83.052 295.515 85.8328 292.629C91.7848 286.462 95.3779 282.728 108.157 281.065C138.015 277.143 160.604 289.86 186.647 304.619C202.339 313.496 218.563 322.694 237.333 328.478C251.213 332.751 265.25 334.903 279.751 334.903C303.356 334.903 328.199 329.204 355.569 317.703C377.468 308.513 401.448 295.332 426.83 278.542C434.196 273.671 436.219 263.747 431.341 256.378C426.478 249.02 416.558 246.989 409.185 251.859Z" fill="white"/>
</svg>
