<svg width="384" height="240" viewBox="0 0 384 240" fill="none" xmlns="http://www.w3.org/2000/svg">
<path d="M368.093 98.2134V170.2C342.098 187.4 319.461 199.558 299.465 207.955C250.755 228.432 218.12 226.19 192.125 218.192C144.696 203.558 111.261 162.924 56.1495 170.2C30.9548 173.481 27.7562 185.401 16.1567 194.196V122.209C27.7562 113.414 30.9548 101.494 56.1495 98.2134C111.261 90.9373 144.696 131.571 192.125 146.205C218.12 154.203 250.755 156.445 299.465 135.968C319.461 127.571 342.098 115.413 368.093 98.2134Z" fill="#1597E5"/>
<path d="M367.933 16.8687L368.015 98.2134C342.02 115.413 319.383 127.571 299.387 135.968C250.677 156.445 218.042 154.203 192.047 146.205C144.614 131.571 111.179 90.9373 56.0714 98.2134C30.8767 101.494 27.6742 113.414 16.0786 122.209L15.9966 40.8644C27.596 32.0652 30.7947 20.1494 55.9894 16.8687C111.1 9.59267 144.454 50.222 191.965 64.86C217.96 72.8586 250.595 75.1004 299.305 54.6236C319.301 46.2228 341.938 34.0648 367.933 16.8687Z" fill="#1597E5"/>
<path d="M359.185 84.872C335.458 100.557 313.263 112.789 293.181 121.217C245.244 141.366 216.464 136.984 196.757 130.922C181.318 126.154 167.282 118.202 152.421 109.789C123.954 93.6556 94.4628 77.0101 53.9975 82.3451C30.1307 85.4578 20.1169 95.8466 12.7979 103.431C10.5444 105.782 8.58381 107.813 6.40061 109.469C-0.641082 114.804 -2.01583 124.841 3.32695 131.879C8.65411 138.921 18.6914 140.303 25.7409 134.953C29.9003 131.801 33.052 128.528 35.8328 125.642C41.7848 119.475 45.3779 115.741 58.1569 114.078C88.0148 110.164 110.604 122.873 136.647 137.632C152.339 146.509 168.563 155.707 187.333 161.491C201.213 165.764 215.25 167.916 229.751 167.916C253.356 167.916 278.199 162.217 305.569 150.716C327.468 141.526 351.448 128.345 376.83 111.555C384.196 106.684 386.219 96.7605 381.341 89.3907C376.478 82.0327 366.558 79.994 359.185 84.872Z" fill="#193498"/>
<path d="M25.6667 53.6081C29.8261 50.4486 32.9779 47.1757 35.7703 44.2895C41.7146 38.1227 45.3038 34.3929 58.0866 32.7291C87.9757 28.7884 110.46 41.5127 136.486 56.2444C152.198 65.149 168.449 74.3544 187.27 80.1463C201.147 84.419 215.187 86.567 229.688 86.567C253.29 86.567 278.133 80.8727 305.507 69.3709C327.405 60.1812 351.385 47 376.763 30.21C384.129 25.3398 386.156 15.4119 381.274 8.04606C376.404 0.688013 366.488 -1.34287 359.11 3.53515C335.388 19.2198 313.193 31.452 293.107 39.8801C245.154 60.0367 216.394 55.6468 196.679 49.5854C181.185 44.8089 167.137 36.8494 152.245 28.4213C123.825 12.3187 94.4785 -4.31889 53.9272 1.01608C30.0526 4.12099 20.0388 14.5175 12.7276 22.1021C10.4624 24.4533 8.50962 26.4841 6.32642 28.1401C-0.711368 33.4751 -2.08612 43.5123 3.25666 50.5501C8.58383 57.5645 18.6211 58.9509 25.6667 53.6081V53.6081Z" fill="#193498"/>
<path d="M359.185 156.859C335.458 172.544 313.263 184.776 293.181 193.204C245.244 213.361 216.464 208.978 196.757 202.909C181.318 198.141 167.282 190.189 152.421 181.776C123.954 165.643 94.4628 148.997 53.9975 154.332C30.1307 157.445 20.1169 167.834 12.7979 175.418C10.5444 177.769 8.58381 179.8 6.40061 181.456C-0.641082 186.791 -2.01583 196.828 3.32695 203.866C8.65411 210.908 18.6914 212.29 25.7409 206.94C29.9003 203.788 33.052 200.515 35.8328 197.629C41.7848 191.462 45.3779 187.728 58.1569 186.065C88.0148 182.143 110.604 194.86 136.647 209.619C152.339 218.496 168.563 227.694 187.333 233.478C201.213 237.751 215.25 239.903 229.751 239.903C253.356 239.903 278.199 234.204 305.569 222.703C327.468 213.513 351.448 200.332 376.83 183.542C384.196 178.671 386.219 168.747 381.341 161.378C376.478 154.02 366.558 151.989 359.185 156.859Z" fill="#193498"/>
</svg>
